<svg width="116" height="42" viewBox="0 0 116 42" fill="none" xmlns="http://www.w3.org/2000/svg">
<path d="M17.0028 14.9091C16.8537 13.6496 16.2488 12.6719 15.1882 11.9759C14.1276 11.2798 12.8267 10.9318 11.2855 10.9318C10.1586 10.9318 9.17259 11.1141 8.32741 11.4787C7.49053 11.8433 6.83594 12.3446 6.36364 12.9826C5.89962 13.6206 5.66761 14.3456 5.66761 15.1577C5.66761 15.8371 5.82919 16.4213 6.15234 16.9102C6.48378 17.3907 6.90637 17.7926 7.4201 18.1158C7.93383 18.4306 8.47242 18.6916 9.03587 18.8988C9.59931 19.0977 10.1172 19.2592 10.5895 19.3835L13.1747 20.0795C13.8376 20.2536 14.575 20.4938 15.3871 20.8004C16.2074 21.107 16.9904 21.5254 17.7362 22.0558C18.4902 22.5778 19.1116 23.2489 19.6005 24.0692C20.0894 24.8896 20.3338 25.8963 20.3338 27.0895C20.3338 28.465 19.9734 29.7079 19.2525 30.8182C18.5399 31.9285 17.4959 32.811 16.1204 33.4656C14.7532 34.1201 13.0919 34.4474 11.1364 34.4474C9.31345 34.4474 7.73497 34.1533 6.40092 33.565C5.07517 32.9767 4.03113 32.1564 3.26882 31.104C2.5148 30.0517 2.08807 28.8295 1.98864 27.4375H5.17045C5.25331 28.3987 5.57647 29.1941 6.13991 29.8239C6.71165 30.4453 7.43253 30.9093 8.30256 31.2159C9.18087 31.5142 10.1255 31.6634 11.1364 31.6634C12.313 31.6634 13.3694 31.4728 14.3058 31.0916C15.2421 30.7022 15.9837 30.1636 16.5305 29.4759C17.0774 28.7798 17.3509 27.9678 17.3509 27.0398C17.3509 26.1946 17.1147 25.5069 16.6424 24.9766C16.1701 24.4463 15.5487 24.0154 14.7781 23.6839C14.0075 23.3525 13.1747 23.0625 12.2798 22.8139L9.14773 21.919C7.15909 21.3473 5.58475 20.5311 4.42472 19.4705C3.26468 18.4099 2.68466 17.022 2.68466 15.3068C2.68466 13.8816 3.06996 12.6387 3.84055 11.5781C4.61944 10.5092 5.66347 9.68063 6.97266 9.09233C8.29013 8.49574 9.76089 8.19744 11.3849 8.19744C13.0256 8.19744 14.4839 8.49159 15.7599 9.0799C17.036 9.65992 18.0469 10.4554 18.7926 11.4663C19.5466 12.4772 19.9444 13.6248 19.9858 14.9091H17.0028Z" fill="#7B7B7B"/>
<path d="M15.0824 34V8.54545H30.3452V11.2798H18.1648V19.8807H29.2017V22.6151H18.1648V34H15.0824Z" fill="white"/>
<path d="M40.2869 17.8182C40.223 17.2784 39.9638 16.8594 39.5092 16.5611C39.0547 16.2628 38.4972 16.1136 37.8366 16.1136C37.3537 16.1136 36.9311 16.1918 36.5689 16.348C36.2102 16.5043 35.9297 16.7191 35.7273 16.9925C35.5284 17.266 35.429 17.5767 35.429 17.9247C35.429 18.2159 35.4982 18.4663 35.6367 18.6758C35.7788 18.8817 35.9599 19.054 36.18 19.1925C36.4002 19.3274 36.631 19.4393 36.8725 19.5281C37.114 19.6133 37.3359 19.6825 37.5384 19.7358L38.6463 20.0341C38.9304 20.1087 39.2464 20.2116 39.5945 20.343C39.946 20.4744 40.2816 20.6538 40.6012 20.881C40.9244 21.1048 41.1907 21.3924 41.4002 21.744C41.6097 22.0955 41.7145 22.527 41.7145 23.0384C41.7145 23.6278 41.56 24.1605 41.2511 24.6364C40.9457 25.1122 40.4982 25.4904 39.9087 25.771C39.3228 26.0515 38.6108 26.1918 37.7727 26.1918C36.9915 26.1918 36.315 26.0657 35.7433 25.8136C35.1751 25.5614 34.7276 25.2099 34.4009 24.7589C34.0778 24.3079 33.8949 23.7841 33.8523 23.1875H35.2159C35.2514 23.5994 35.3899 23.9403 35.6314 24.2102C35.8764 24.4766 36.1854 24.6754 36.5582 24.8068C36.9347 24.9347 37.3395 24.9986 37.7727 24.9986C38.277 24.9986 38.7298 24.9169 39.131 24.7536C39.5323 24.5866 39.8501 24.3558 40.0845 24.0611C40.3189 23.7628 40.4361 23.4148 40.4361 23.017C40.4361 22.6548 40.3349 22.3601 40.1325 22.1328C39.93 21.9055 39.6637 21.7209 39.3335 21.5788C39.0032 21.4368 38.6463 21.3125 38.2628 21.206L36.9205 20.8224C36.0682 20.5774 35.3935 20.2276 34.8963 19.7731C34.3991 19.3185 34.1506 18.7237 34.1506 17.9886C34.1506 17.3778 34.3157 16.8452 34.646 16.3906C34.9798 15.9325 35.4272 15.5774 35.9883 15.3253C36.5529 15.0696 37.1832 14.9418 37.8793 14.9418C38.5824 14.9418 39.2074 15.0678 39.7543 15.32C40.3011 15.5685 40.7344 15.9094 41.054 16.3427C41.3771 16.7759 41.5476 17.2678 41.5653 17.8182H40.2869ZM47.2742 17.8182V18.8835H43.0342V17.8182H47.2742ZM44.27 15.858H45.5271V23.6562C45.5271 24.0114 45.5786 24.2777 45.6816 24.4553C45.7881 24.6293 45.923 24.7464 46.0864 24.8068C46.2533 24.8636 46.4291 24.892 46.6137 24.892C46.7522 24.892 46.8659 24.8849 46.9546 24.8707C47.0434 24.853 47.1144 24.8388 47.1677 24.8281L47.4234 25.9574C47.3382 25.9893 47.2192 26.0213 47.0665 26.0533C46.9138 26.0888 46.7203 26.1065 46.4859 26.1065C46.1308 26.1065 45.7828 26.0302 45.4419 25.8775C45.1045 25.7248 44.824 25.4922 44.6002 25.1797C44.3801 24.8672 44.27 24.473 44.27 23.9972V15.858ZM52.4012 26.1705C51.6626 26.1705 51.0145 25.9947 50.4569 25.6431C49.903 25.2915 49.4697 24.7997 49.1572 24.1676C48.8483 23.5355 48.6938 22.7969 48.6938 21.9517C48.6938 21.0994 48.8483 20.3555 49.1572 19.7198C49.4697 19.0842 49.903 18.5906 50.4569 18.239C51.0145 17.8874 51.6626 17.7116 52.4012 17.7116C53.1398 17.7116 53.7861 17.8874 54.3401 18.239C54.8976 18.5906 55.3309 19.0842 55.6398 19.7198C55.9523 20.3555 56.1086 21.0994 56.1086 21.9517C56.1086 22.7969 55.9523 23.5355 55.6398 24.1676C55.3309 24.7997 54.8976 25.2915 54.3401 25.6431C53.7861 25.9947 53.1398 26.1705 52.4012 26.1705ZM52.4012 25.0412C52.9623 25.0412 53.4239 24.8974 53.7861 24.6097C54.1483 24.3221 54.4165 23.9439 54.5905 23.4751C54.7645 23.0064 54.8515 22.4986 54.8515 21.9517C54.8515 21.4048 54.7645 20.8952 54.5905 20.4229C54.4165 19.9506 54.1483 19.5689 53.7861 19.2777C53.4239 18.9865 52.9623 18.8409 52.4012 18.8409C51.8401 18.8409 51.3785 18.9865 51.0162 19.2777C50.654 19.5689 50.3859 19.9506 50.2119 20.4229C50.0379 20.8952 49.9509 21.4048 49.9509 21.9517C49.9509 22.4986 50.0379 23.0064 50.2119 23.4751C50.3859 23.9439 50.654 24.3221 51.0162 24.6097C51.3785 24.8974 51.8401 25.0412 52.4012 25.0412ZM58.0275 26V17.8182H59.242V19.054H59.3272C59.4764 18.6491 59.7463 18.3207 60.1369 18.0685C60.5275 17.8164 60.9679 17.6903 61.4579 17.6903C61.5502 17.6903 61.6657 17.6921 61.8042 17.6957C61.9426 17.6992 62.0474 17.7045 62.1184 17.7116V18.9901C62.0758 18.9794 61.9782 18.9634 61.8255 18.9421C61.6763 18.9173 61.5183 18.9048 61.3514 18.9048C60.9537 18.9048 60.5985 18.9883 60.286 19.1552C59.9771 19.3185 59.7321 19.5458 59.551 19.837C59.3734 20.1246 59.2846 20.4531 59.2846 20.8224V26H58.0275ZM64.6673 29.0682C64.4542 29.0682 64.2642 29.0504 64.0973 29.0149C63.9304 28.983 63.815 28.951 63.7511 28.919L64.0707 27.8111C64.3761 27.8892 64.646 27.9176 64.8803 27.8963C65.1147 27.875 65.3224 27.7702 65.5036 27.582C65.6882 27.3974 65.8569 27.0973 66.0096 26.6818L66.244 26.0426L63.2184 17.8182H64.582L66.8406 24.3381H66.9258L69.1843 17.8182H70.5479L67.0749 27.1932C66.9187 27.6158 66.7251 27.9656 66.4943 28.2425C66.2635 28.5231 65.9954 28.7308 65.69 28.8658C65.3881 29.0007 65.0472 29.0682 64.6673 29.0682ZM76.5964 26V15.0909H83.1376V16.2628H77.9174V19.9489H82.6475V21.1207H77.9174V26H76.5964ZM87.9529 26.1705C87.2143 26.1705 86.5662 25.9947 86.0087 25.6431C85.4547 25.2915 85.0215 24.7997 84.709 24.1676C84.4 23.5355 84.2456 22.7969 84.2456 21.9517C84.2456 21.0994 84.4 20.3555 84.709 19.7198C85.0215 19.0842 85.4547 18.5906 86.0087 18.239C86.5662 17.8874 87.2143 17.7116 87.9529 17.7116C88.6916 17.7116 89.3379 17.8874 89.8919 18.239C90.4494 18.5906 90.8826 19.0842 91.1916 19.7198C91.5041 20.3555 91.6603 21.0994 91.6603 21.9517C91.6603 22.7969 91.5041 23.5355 91.1916 24.1676C90.8826 24.7997 90.4494 25.2915 89.8919 25.6431C89.3379 25.9947 88.6916 26.1705 87.9529 26.1705ZM87.9529 25.0412C88.514 25.0412 88.9757 24.8974 89.3379 24.6097C89.7001 24.3221 89.9682 23.9439 90.1422 23.4751C90.3162 23.0064 90.4032 22.4986 90.4032 21.9517C90.4032 21.4048 90.3162 20.8952 90.1422 20.4229C89.9682 19.9506 89.7001 19.5689 89.3379 19.2777C88.9757 18.9865 88.514 18.8409 87.9529 18.8409C87.3919 18.8409 86.9302 18.9865 86.568 19.2777C86.2058 19.5689 85.9377 19.9506 85.7637 20.4229C85.5897 20.8952 85.5027 21.4048 85.5027 21.9517C85.5027 22.4986 85.5897 23.0064 85.7637 23.4751C85.9377 23.9439 86.2058 24.3221 86.568 24.6097C86.9302 24.8974 87.3919 25.0412 87.9529 25.0412ZM93.5793 26V17.8182H94.7938V19.054H94.879C95.0281 18.6491 95.298 18.3207 95.6887 18.0685C96.0793 17.8164 96.5196 17.6903 97.0097 17.6903C97.102 17.6903 97.2174 17.6921 97.3559 17.6957C97.4944 17.6992 97.5992 17.7045 97.6702 17.7116V18.9901C97.6276 18.9794 97.5299 18.9634 97.3772 18.9421C97.2281 18.9173 97.07 18.9048 96.9031 18.9048C96.5054 18.9048 96.1503 18.9883 95.8378 19.1552C95.5289 19.3185 95.2838 19.5458 95.1027 19.837C94.9252 20.1246 94.8364 20.4531 94.8364 20.8224V26H93.5793ZM102.214 29.2386C101.607 29.2386 101.085 29.1605 100.648 29.0043C100.211 28.8516 99.847 28.6491 99.5558 28.397C99.2682 28.1484 99.0392 27.8821 98.8687 27.598L99.8701 26.8949C99.9838 27.044 100.128 27.2145 100.302 27.4062C100.476 27.6016 100.714 27.7702 101.015 27.9123C101.321 28.0579 101.72 28.1307 102.214 28.1307C102.874 28.1307 103.419 27.9709 103.849 27.6513C104.279 27.3317 104.494 26.831 104.494 26.1491V24.4872H104.387C104.295 24.6364 104.163 24.821 103.993 25.0412C103.826 25.2578 103.585 25.4513 103.269 25.6218C102.956 25.7887 102.533 25.8722 102.001 25.8722C101.34 25.8722 100.747 25.7159 100.222 25.4034C99.6997 25.0909 99.286 24.6364 98.9806 24.0398C98.6787 23.4432 98.5278 22.7187 98.5278 21.8665C98.5278 21.0284 98.6752 20.2987 98.9699 19.6772C99.2646 19.0522 99.6748 18.5692 100.2 18.2283C100.726 17.8839 101.333 17.7116 102.022 17.7116C102.555 17.7116 102.977 17.8004 103.29 17.978C103.606 18.152 103.847 18.3509 104.014 18.5746C104.185 18.7947 104.316 18.9759 104.408 19.1179H104.536V17.8182H105.751V26.2344C105.751 26.9375 105.591 27.5092 105.271 27.9496C104.955 28.3935 104.529 28.7184 103.993 28.9244C103.46 29.1339 102.867 29.2386 102.214 29.2386ZM102.171 24.7429C102.676 24.7429 103.102 24.6275 103.45 24.3967C103.798 24.1658 104.062 23.8338 104.243 23.4006C104.424 22.9673 104.515 22.4489 104.515 21.8452C104.515 21.2557 104.426 20.7354 104.249 20.2844C104.071 19.8335 103.808 19.4801 103.46 19.2244C103.112 18.9687 102.683 18.8409 102.171 18.8409C101.639 18.8409 101.195 18.9759 100.84 19.2457C100.488 19.5156 100.223 19.8778 100.046 20.3324C99.8719 20.7869 99.7849 21.2912 99.7849 21.8452C99.7849 22.4134 99.8737 22.9158 100.051 23.3526C100.232 23.7859 100.499 24.1268 100.85 24.3754C101.205 24.6204 101.646 24.7429 102.171 24.7429ZM111.482 26.1705C110.694 26.1705 110.014 25.9964 109.442 25.6484C108.874 25.2969 108.435 24.8068 108.127 24.1783C107.821 23.5462 107.668 22.8111 107.668 21.973C107.668 21.1349 107.821 20.3963 108.127 19.7571C108.435 19.1143 108.865 18.6136 109.416 18.255C109.97 17.8928 110.616 17.7116 111.354 17.7116C111.781 17.7116 112.201 17.7827 112.617 17.9247C113.032 18.0668 113.411 18.2976 113.752 18.6172C114.092 18.9332 114.364 19.3523 114.566 19.8743C114.769 20.3963 114.87 21.0391 114.87 21.8026V22.3352H108.563V21.2486H113.592C113.592 20.7869 113.499 20.375 113.315 20.0128C113.134 19.6506 112.874 19.3647 112.537 19.1552C112.203 18.9457 111.809 18.8409 111.354 18.8409C110.854 18.8409 110.421 18.9652 110.055 19.2138C109.693 19.4588 109.414 19.7784 109.218 20.1726C109.023 20.5668 108.926 20.9893 108.926 21.4403V22.1648C108.926 22.7827 109.032 23.3065 109.245 23.7362C109.462 24.1623 109.762 24.4872 110.145 24.7109C110.529 24.9311 110.975 25.0412 111.482 25.0412C111.813 25.0412 112.111 24.995 112.377 24.9027C112.647 24.8068 112.88 24.6648 113.075 24.4766C113.27 24.2848 113.421 24.0469 113.528 23.7628L114.742 24.1037C114.614 24.5156 114.4 24.8778 114.098 25.1903C113.796 25.4993 113.423 25.7408 112.979 25.9148C112.535 26.0852 112.036 26.1705 111.482 26.1705Z" fill="#7B7B7B"/>
</svg>
